<svg id="mermaid-1599685156329" width="550.8125" xmlns="http://www.w3.org/2000/svg" xmlns:xlink="http://www.w3.org/1999/xlink" height="607.703125" viewBox="-20 -20 550.8125 607.703125"><style>#mermaid-1599685156329{font-family:"trebuchet ms",verdana,arial;font-size:16px;fill:#333;}#mermaid-1599685156329 .error-icon{fill:#552222;}#mermaid-1599685156329 .error-text{fill:#552222;stroke:#552222;}#mermaid-1599685156329 .edge-thickness-normal{stroke-width:2px;}#mermaid-1599685156329 .edge-thickness-thick{stroke-width:3.5px;}#mermaid-1599685156329 .edge-pattern-solid{stroke-dasharray:0;}#mermaid-1599685156329 .edge-pattern-dashed{stroke-dasharray:3;}#mermaid-1599685156329 .edge-pattern-dotted{stroke-dasharray:2;}#mermaid-1599685156329 .marker{fill:#333333;}#mermaid-1599685156329 .marker.cross{stroke:#333333;}#mermaid-1599685156329 svg{font-family:"trebuchet ms",verdana,arial;font-size:16px;}#mermaid-1599685156329 g.classGroup text{fill:#9370DB;fill:#131300;stroke:none;font-family:"trebuchet ms",verdana,arial;font-size:10px;}#mermaid-1599685156329 g.classGroup text .title{font-weight:bolder;}#mermaid-1599685156329 .node rect,#mermaid-1599685156329 .node circle,#mermaid-1599685156329 .node ellipse,#mermaid-1599685156329 .node polygon,#mermaid-1599685156329 .node path{fill:#ECECFF;stroke:#9370DB;stroke-width:1px;}#mermaid-1599685156329 .divider{stroke:#9370DB;stroke:1;}#mermaid-1599685156329 g.clickable{cursor:pointer;}#mermaid-1599685156329 g.classGroup rect{fill:#ECECFF;stroke:#9370DB;}#mermaid-1599685156329 g.classGroup line{stroke:#9370DB;stroke-width:1;}#mermaid-1599685156329 .classLabel .box{stroke:none;stroke-width:0;fill:#ECECFF;opacity:0.5;}#mermaid-1599685156329 .classLabel .label{fill:#9370DB;font-size:10px;}#mermaid-1599685156329 .relation{stroke:#333333;stroke-width:1;fill:none;}#mermaid-1599685156329 .dashed-line{stroke-dasharray:3;}#mermaid-1599685156329 #compositionStart,#mermaid-1599685156329 .composition{fill:#333333 !important;stroke:#333333 !important;stroke-width:1;}#mermaid-1599685156329 #compositionEnd,#mermaid-1599685156329 .composition{fill:#333333 !important;stroke:#333333 !important;stroke-width:1;}#mermaid-1599685156329 #dependencyStart,#mermaid-1599685156329 .dependency{fill:#333333 !important;stroke:#333333 !important;stroke-width:1;}#mermaid-1599685156329 #dependencyStart,#mermaid-1599685156329 .dependency{fill:#333333 !important;stroke:#333333 !important;stroke-width:1;}#mermaid-1599685156329 #extensionStart,#mermaid-1599685156329 .extension{fill:#333333 !important;stroke:#333333 !important;stroke-width:1;}#mermaid-1599685156329 #extensionEnd,#mermaid-1599685156329 .extension{fill:#333333 !important;stroke:#333333 !important;stroke-width:1;}#mermaid-1599685156329 #aggregationStart,#mermaid-1599685156329 .aggregation{fill:#ECECFF !important;stroke:#333333 !important;stroke-width:1;}#mermaid-1599685156329 #aggregationEnd,#mermaid-1599685156329 .aggregation{fill:#ECECFF !important;stroke:#333333 !important;stroke-width:1;}#mermaid-1599685156329:root{--mermaid-font-family:"trebuchet ms",verdana,arial;}#mermaid-1599685156329 class{fill:apa;}</style><g></g><defs><marker id="extensionStart" class="extension" refX="0" refY="7" markerWidth="190" markerHeight="240" orient="auto"><path d="M 1,7 L18,13 V 1 Z"></path></marker></defs><defs><marker id="extensionEnd" refX="19" refY="7" markerWidth="20" markerHeight="28" orient="auto"><path d="M 1,1 V 13 L18,7 Z"></path></marker></defs><defs><marker id="compositionStart" class="extension" refX="0" refY="7" markerWidth="190" markerHeight="240" orient="auto"><path d="M 18,7 L9,13 L1,7 L9,1 Z"></path></marker></defs><defs><marker id="compositionEnd" refX="19" refY="7" markerWidth="20" markerHeight="28" orient="auto"><path d="M 18,7 L9,13 L1,7 L9,1 Z"></path></marker></defs><defs><marker id="aggregationStart" class="extension" refX="0" refY="7" markerWidth="190" markerHeight="240" orient="auto"><path d="M 18,7 L9,13 L1,7 L9,1 Z"></path></marker></defs><defs><marker id="aggregationEnd" refX="19" refY="7" markerWidth="20" markerHeight="28" orient="auto"><path d="M 18,7 L9,13 L1,7 L9,1 Z"></path></marker></defs><defs><marker id="dependencyStart" class="extension" refX="0" refY="7" markerWidth="190" markerHeight="240" orient="auto"><path d="M 5,7 L9,13 L1,7 L9,1 Z"></path></marker></defs><defs><marker id="dependencyEnd" refX="19" refY="7" markerWidth="20" markerHeight="28" orient="auto"><path d="M 18,7 L9,13 L14,7 L9,1 Z"></path></marker></defs><g id="classid-BCW-35" class="classGroup" transform="translate(209.12890625,0 )"><rect x="0" y="0" width="164.265625" height="79.828125" class=" "></rect><text y="15" x="0"><tspan class="title" x="71.4921875">BCW</tspan></text><line x1="0" y1="21.609375" y2="21.609375" x2="164.265625"></line><text x="5" y="31.609375" fill="white" class="classText"><tspan x="5">+int age</tspan><tspan x="5" dy="10">+String gender</tspan></text><line x1="0" y1="48.21875" y2="48.21875" x2="164.265625"></line><text x="5" y="63.21875" fill="white" class="classText"><tspan x="5">+BCW()</tspan><tspan x="5" dy="10">+actionPerformed(ActionEvent e)</tspan></text></g><g id="classid-Predict-36" class="classGroup" transform="translate(125.9453125,139.828125 )"><rect x="0" y="0" width="59.375" height="48.21875" class=" "></rect><text y="15" x="0"><tspan class="title" x="12.7890625">Predict</tspan></text><line x1="0" y1="21.609375" y2="21.609375" x2="59.375"></line><text x="5" y="31.609375" fill="white" class="classText"></text><line x1="0" y1="26.609375" y2="26.609375" x2="59.375"></line><text x="5" y="41.609375" fill="white" class="classText"><tspan x="5">+Predict()</tspan></text></g><g id="classid-HomeGUI-37" class="classGroup" transform="translate(342.96875,129.828125 )"><rect x="0" y="0" width="167.84375" height="68.21875" class=" "></rect><text y="15" x="0"><tspan class="title" x="62.359375">HomeGUI</tspan></text><line x1="0" y1="21.609375" y2="21.609375" x2="167.84375"></line><text x="5" y="31.609375" fill="white" class="classText"></text><line x1="0" y1="26.609375" y2="26.609375" x2="167.84375"></line><text x="5" y="41.609375" fill="white" class="classText"><tspan x="5">+HomeGUI()</tspan><tspan x="5" dy="10">+valueChanged(ListActionEvent e)</tspan><tspan x="5" dy="10">+actionPerformed(ActionEvent e)</tspan></text></g><g id="classid-LoadModel-38" class="classGroup" transform="translate(125.6640625,292.5546875 )"><rect x="0" y="0" width="59.9375" height="30.8125" class=" "></rect><text y="15" x="0"><tspan class="title" x="5">LoadModel</tspan></text><line x1="0" y1="21.609375" y2="21.609375" x2="59.9375"></line><text x="5" y="31.609375" fill="white" class="classText"></text><line x1="0" y1="26.609375" y2="26.609375" x2="59.9375"></line><text x="5" y="41.609375" fill="white" class="classText"></text></g><g id="classid-Model-39" class="classGroup" transform="translate(0,427.875 )"><rect x="0" y="0" width="311.265625" height="129.828125" class=" "></rect><text y="15" x="0"><tspan class="title" x="141.6171875">Model</tspan></text><line x1="0" y1="21.609375" y2="21.609375" x2="311.265625"></line><text x="5" y="31.609375" fill="white" class="classText"><tspan x="5">+nEpochs:int</tspan><tspan x="5" dy="10">+learingRate:double</tspan><tspan x="5" dy="10">+MLPmisc</tspan></text><line x1="0" y1="58.21875" y2="58.21875" x2="311.265625"></line><text x="5" y="73.21875" fill="white" class="classText"><tspan x="5">-read_CSV(String csvpath)</tspan><tspan x="5" dy="10">-train_test_split(RecordReader rr)</tspan><tspan x="5" dy="10">-set_init_NetworkParams(double lr, int nE, int nI, int nO, int nHN)</tspan><tspan x="5" dy="10">-buildNetwork()</tspan><tspan x="5" dy="10">-compile()</tspan><tspan x="5" dy="10">+save()</tspan></text></g><g id="classid-User-40" class="classGroup" transform="translate(385.28125,248.046875 )"><rect x="0" y="0" width="83.21875" height="119.828125" class=" "></rect><text y="15" x="0"><tspan class="title" x="30.9921875">User</tspan></text><line x1="0" y1="21.609375" y2="21.609375" x2="83.21875"></line><text x="5" y="31.609375" fill="white" class="classText"><tspan x="5">+String name</tspan><tspan x="5" dy="10">+String ac</tspan><tspan x="5" dy="10">+String amnt</tspan><tspan x="5" dy="10">+String contact</tspan><tspan x="5" dy="10">+char [] acnum</tspan><tspan x="5" dy="10">+char [] pin</tspan></text><line x1="0" y1="88.21875" y2="88.21875" x2="83.21875"></line><text x="5" y="103.21875" fill="white" class="classText"><tspan x="5">+NewUser()</tspan><tspan x="5" dy="10">+ExistingUser()</tspan></text></g><g id="classid-Operations-41" class="classGroup" transform="translate(361.265625,417.875 )"><rect x="0" y="0" width="131.25" height="149.828125" class=" "></rect><text y="15" x="0"><tspan class="title" x="40.21875">Operations</tspan></text><line x1="0" y1="21.609375" y2="21.609375" x2="131.25"></line><text x="5" y="31.609375" fill="white" class="classText"><tspan x="5">+wamt :float</tspan><tspan x="5" dy="10">+damt: float</tspan><tspan x="5" dy="10">+bal : float</tspan><tspan x="5" dy="10">+data : String</tspan><tspan x="5" dy="10">+fbal  : char[]</tspan><tspan x="5" dy="10">+user : char[]</tspan><tspan x="5" dy="10">+account:  char[]</tspan><tspan x="5" dy="10">+l: int</tspan></text><line x1="0" y1="108.21875" y2="108.21875" x2="131.25"></line><text x="5" y="123.21875" fill="white" class="classText"><tspan x="5">+desposit(String userpass)</tspan><tspan x="5" dy="10">+withdraw(String nmpass)</tspan><tspan x="5" dy="10">+inquery(String nmpass)</tspan></text></g><path d="M209.12890625,79.22407886257596L200.212890625,83.49141988547997C191.296875,87.75876090838398,173.46484375,96.293442954192,164.548828125,106.39411731042934C155.6328125,116.49479166666667,155.6328125,128.16145833333334,155.6328125,133.99479166666666L155.6328125,139.828125" id="edge24" class="relation dashed-line" marker-end="url(#dependencyEnd)"></path><g class="classLabel"><rect class="box" x="126.0625" y="87.875" width="81.171875" height="16.609375"></rect><text class="label" x="166.595688475624" y="99.58112540428215" fill="red" text-anchor="middle">GUI for Predictor</text></g><path d="M373.39453125,79.22407886257596L382.310546875,83.49141988547997C391.2265625,87.75876090838398,409.05859375,96.293442954192,417.974609375,104.72745064376267C426.890625,113.16145833333333,426.890625,121.49479166666667,426.890625,125.66145833333333L426.890625,129.828125" id="edge25" class="relation dashed-line" marker-end="url(#dependencyEnd)"></path><g class="classLabel"><rect class="box" x="323.5" y="85.71875" width="175.84375" height="16.609375"></rect><text class="label" x="411.4177001959829" y="97.42254726914096" fill="red" text-anchor="middle">GUI for User registration/buying meds</text></g><path d="M155.6328125,188.046875L155.6328125,193.88020833333334C155.6328125,199.71354166666666,155.6328125,211.38020833333334,155.6328125,228.79817708333334C155.6328125,246.21614583333334,155.6328125,269.3854166666667,155.6328125,280.9700520833333L155.6328125,292.5546875" id="edge26" class="relation dashed-line" marker-end="url(#dependencyEnd)"></path><g class="classLabel"><rect class="box" x="97.828125" y="228.59375" width="115.609375" height="16.609375"></rect><text class="label" x="155.6328125" y="240.30078125" fill="red" text-anchor="middle">Hypothetical Connection</text></g><path d="M155.6328125,323.3671875L155.6328125,334.9518229166667C155.6328125,346.5364583333333,155.6328125,369.7057291666667,155.6328125,387.1236979166667C155.6328125,404.5416666666667,155.6328125,416.2083333333333,155.6328125,422.0416666666667L155.6328125,427.875" id="edge27" class="relation dashed-line" marker-end="url(#extensionEnd)"></path><g class="classLabel"><rect class="box" x="112.328125" y="363.90625" width="86.328125" height="16.625"></rect><text class="label" x="155.6328125" y="375.62109375" fill="red" text-anchor="middle">MLP Model Loader</text></g><path d="M426.890625,198.046875L426.890625,202.21354166666666C426.890625,206.38020833333334,426.890625,214.71354166666666,426.890625,223.046875C426.890625,231.38020833333334,426.890625,239.71354166666666,426.890625,243.88020833333334L426.890625,248.046875" id="edge28" class="relation dashed-line" marker-end="url(#dependencyEnd)"></path><g class="classLabel"><rect class="box" x="371.265625" y="211.34375" width="111.359375" height="16.609375"></rect><text class="label" x="426.890625" y="223.046875" fill="red" text-anchor="middle">Checking/Creating User</text></g><path d="M426.890625,367.875L426.890625,372.0416666666667C426.890625,376.2083333333333,426.890625,384.5416666666667,426.890625,392.875C426.890625,401.2083333333333,426.890625,409.5416666666667,426.890625,413.7083333333333L426.890625,417.875" id="edge29" class="relation" marker-end="url(#extensionEnd)"></path><g class="classLabel"><rect class="box" x="380.9375" y="381.171875" width="91.5" height="16.609375"></rect><text class="label" x="426.890625" y="392.875" fill="red" text-anchor="middle">Med buying options</text></g></svg>
